# AST/ASF file generated using VICON BodyLanguage
# -----------------------------------------------
:version 1.10
:name VICON
:units
  mass 1.0
  length 0.45
  angle deg
:documentation
   .ast/.asf automatically generated from VICON data using
   VICON BodyBuilder and BodyLanguage model FoxedUp or BRILLIANT.MOD
:root
   order TX TY TZ RX RY RZ
   axis XYZ
   position 0 0 0  
   orientation 0 0 0 
:bonedata
  begin
     id 1 
     name lhipjoint
     direction 0.57768 -0.667037 0.470475 
     length 2.36008 
     axis 0 0 0  XYZ
  end
  begin
     id 2 
     name lfemur
     direction 0.34202 -0.939693 0  
     length 6.97235  
     axis 0 0 20  XYZ
    dof rx ry rz
    limits (-160.0 20.0)
           (-70.0 70.0)
           (-60.0 70.0)
  end
  begin
     id 3 
     name ltibia
     direction 0.34202 -0.939693 0   
     length 6.93428   
     axis 0 0 20   XYZ
    dof rx
    limits (-10.0 170.0)
  end
  begin
     id 4 
     name lfoot
     direction 0.133018 -0.365463 0.921272   
     length 2.18603   
     axis -90 7.62852e-016 20   XYZ
    dof rx rz
    limits (-45.0 90.0)
           (-70.0 20.0)
  end
  begin
     id 5 
     name ltoes
     direction 1.53519e-011 -4.22055e-011 1   
     length 1.07924   
     axis -90 7.62852e-016 20   XYZ
    dof rx
    limits (-90.0 20.0)
  end
  begin
     id 6 
     name rhipjoint
     direction -0.577712 -0.667019 0.470462   
     length 2.36015  
     axis 0 0 0  XYZ 
  end
  begin
     id 7 
     name rfemur
     direction -0.34202 -0.939693 0   
     length 6.71195   
     axis 0 0 -20   XYZ
    dof rx ry rz
    limits (-160.0 20.0)
           (-70.0 70.0)
           (-70.0 60.0)
  end
  begin
     id 8 
     name rtibia
     direction -0.34202 -0.939693 0   
     length 7.04592   
     axis 0 0 -20   XYZ
    dof rx
    limits (-10.0 170.0)
 end
 begin
     id 9 
     name rfoot
     direction -0.113796 -0.312651 0.943027   
     length 2.03846  
     axis -90 -7.62852e-016 -20   XYZ
    dof rx rz
    limits (-45.0 90.0)
           (-20.0 70.0)
  end
  begin
     id 10 
     name rtoes
     direction -1.53586e-011 -4.218e-011 1   
     length 1.01562   
     axis -90 -7.62852e-016 -20   XYZ
    dof rx
    limits (-90.0 20.0)
  end
  begin
     id 11 
     name lowerback
     direction -0.0417299 0.991937 -0.119667   
     length 2.05257   
     axis 0 0 0   XYZ
    dof rx ry rz
    limits (-20.0 45.0)
           (-30.0 30.0)
           (-30.0 30.0)
  end
  begin
     id 12 
     name upperback
     direction -0.00017666 0.999999 0.00105178   
     length 2.05693   
     axis 0 0 0   XYZ
    dof rx ry rz
    limits (-20.0 45.0)
           (-30.0 30.0)
           (-30.0 30.0)
  end
  begin
     id 13 
     name thorax
     direction 0.0185169 0.998203 0.0569866   
     length 2.0932   
     axis 0 0 0   XYZ
    dof rx ry rz
    limits (-20.0 45.0)
           (-30.0 30.0)
           (-30.0 30.0)
  end
  begin
     id 14 
     name lowerneck
     direction -0.0212406 0.982645 0.184277   
     length 1.72509   
     axis 0 0 0   XYZ
    dof rx ry rz
    limits (-20.0 45.0)
           (-30.0 30.0)
           (-30.0 30.0)
  end
  begin
     id 15 
     name upperneck
     direction 0.00528579 0.965323 -0.261004   
     length 1.76294   
     axis 0 0 0   XYZ
    dof rx ry rz
    limits (-20.0 45.0)
           (-30.0 30.0)
           (-30.0 30.0)
  end
  begin
     id 16
     name head
     direction 0.00695421 0.994078 -0.108445  
     length 1.78678  
     axis 0 0 0   XYZ
    dof rx ry rz
    limits (-20.0 45.0)
           (-30.0 30.0)
           (-30.0 30.0)
  end
  begin
     id 17 
     name lclavicle
     direction 0.97277 0.211305 -0.095232  
     length 3.84823  
     axis 0 0 0   XYZ
    dof ry rz
    limits (-20.0 10.0)
           (0.0 20.0)
  end
  begin
     id 18 
     name lhumerus
     direction 1 -4.48957e-011 -1.98313e-027   
     length 4.97185   
     axis 180 -30 -90   XYZ
    dof rx ry rz
    limits (-60.0 90.0)
           (-90.0 90.0)
           (-90.0 90.0)
  end
  begin
     id 19
     name lradius
     direction 1 -4.4898e-011 7.31063e-027   
     length 3.35811   
     axis 180 -30 -90   XYZ
    dof rx
    limits (-10.0 170.0)
  end
  begin
     id 20
     name lwrist
     direction 1 -4.48938e-011 9.95048e-027   
     length 1.67905   
     axis -8.75986e-015 90 90   XYZ
    dof ry
    limits (-180.0 0.0)
 end
  begin
     id 21 
     name lhand
     direction 1 -4.4901e-011 1.9901e-026   
     length 0.622776   
     axis -1.26985e-014 90 90   XYZ
    dof rx rz
    limits (-90.0 90.0)
           (-45.0 45.0)
  end
  begin
     id 22 
     name lfingers
     direction 1 -4.48961e-011 3.98019e-026   
     length 0.502098   
     axis -2.5397e-014 90 90   XYZ
    dof rx
    limits (0.0 90.0)
  end
  begin
     id 23
     name lthumb
     direction 0.707107 -6.34933e-011 0.707107   
     length 0.720915   
     axis -90 45 2.85299e-015   XYZ
    dof rx rz
    limits (-45.0 45.0)
           (-45.0 45.0)
  end
  begin
     id 24 
     name rclavicle
     direction -0.990867 0.133739 -0.0172226   
     length 3.78845  
     axis 0 0 0   XYZ 
    dof ry rz
    limits (-10.0 20.0)
           (-20.0 0.0)
  end
  begin
     id 25 
     name rhumerus
     direction -1 -4.48972e-011 -1.99267e-027  
     length 4.96493   
     axis 180 30 90   XYZ
    dof rx ry rz
    limits (-90.0 60.0)
           (-90.0 90.0)
           (-90.0 90.0)
  end
  begin
     id 26 
     name rradius
     direction -1 -4.48969e-011 8.96093e-027   
     length 3.34929   
     axis 180 30 90   XYZ
    dof rx
    limits (-10.0 170.0)
  end
  begin
     id 27 
     name rwrist
     direction -1 -4.48953e-011 9.95048e-027   
     length 1.67464   
     axis -8.75986e-015 -90 -90   XYZ
    dof ry
    limits (-180.0 0.0)
  end
  begin
     id 28
     name rhand
     direction -1 -4.49001e-011 1.9901e-026   
     length 0.638041   
     axis -1.26985e-014 -90 -90   XYZ
    dof rx rz
    limits (-90.0 90.0)
           (-45.0 45.0)
  end
  begin
     id 29
     name rfingers
     direction -1 -4.48967e-011 3.98019e-026   
     length 0.514405   
     axis -2.5397e-014 -90 -90   XYZ
    dof rx
    limits (0.0 90.0)
  end
  begin
     id 30
     name rthumb
     direction -0.707107 -6.34904e-011 0.707107   
     length 0.738586   
     axis -90 -45 -2.85299e-015   XYZ
    dof rx rz
    limits (-45.0 45.0)
           (-45.0 45.0)
  end
:hierarchy
  begin
    root lhipjoint rhipjoint lowerback
    lhipjoint lfemur
    lfemur ltibia
    ltibia lfoot
    lfoot ltoes
    rhipjoint rfemur
    rfemur rtibia
    rtibia rfoot
    rfoot rtoes
    lowerback upperback
    upperback thorax
    thorax lowerneck lclavicle rclavicle
    lowerneck upperneck
    upperneck head
    lclavicle lhumerus
    lhumerus lradius
    lradius lwrist
    lwrist lhand lthumb
    lhand lfingers
    rclavicle rhumerus
    rhumerus rradius
    rradius rwrist
    rwrist rhand rthumb
    rhand rfingers
  end

#!OML:ASF E:\Mandelcareful walks\Project 1\Capture day 1\Session 1\Subject1.ASF
:FULLY-SPECIFIED
:DEGREES
62
root -8.43754 1.65653 1.06476 150.932 85.2564 49.2568
lowerback -17.6225 1.21511 1.90691
upperback -2.8282 1.44074 -0.425824
thorax 6.88918 0.822636 -1.19558
lowerneck -8.46032 22.1287 16.0195
upperneck 25.7538 32.3008 -14.4889
head 15.6091 13.939 -1.85271
rclavicle -6.20208e-014 -1.22551e-013
rhumerus 16.0032 -35.5741 -13.2432
rradius 129.034
rwrist -26.4565
rhand -13.5574 -33.8461
rfingers 7.12502
rthumb 12.5558 -63.4488
lclavicle -6.20208e-014 -1.22551e-013
lhumerus 29.9814 27.6783 33.875
lradius 123.021
lwrist 15.929
lhand -18.4839 -19.4802
lfingers 7.12502
lthumb 7.80332 10.3558
rfemur -17.6462 -19.2527 19.7291
rtibia 26.3159
rfoot -21.0266 -25.6753
rtoes 5.51983
lfemur -23.0866 11.1189 -17.2486
ltibia 38.3139
lfoot -19.2834 15.9234
ltoes 7.10394
63
root -8.43424 1.65514 1.06426 150.908 85.2088 49.2734
lowerback -17.5392 1.19643 1.85711
upperback -2.83781 1.425 -0.404638
thorax 6.83136 0.812919 -1.1499
lowerneck -8.44679 22.1133 16.0374
upperneck 25.7892 32.2985 -14.5228
head 15.6353 13.9348 -1.86767
rclavicle 7.71285e-014 1.38777e-013
rhumerus 15.9927 -35.5372 -13.2019
rradius 129.047
rwrist -26.4452
rhand -13.6188 -33.8883
rfingers 7.12502
rthumb 12.4967 -63.4947
lclavicle 7.71285e-014 1.38777e-013
lhumerus 29.8463 27.6497 33.8873
lradius 123.078
lwrist 15.9058
lhand -18.5828 -19.6149
lfingers 7.12502
lthumb 7.70782 10.2246
rfemur -17.5898 -19.2328 19.6649
rtibia 26.3142
rfoot -21.1085 -25.736
rtoes 5.63337
lfemur -23.0191 11.0989 -17.2638
ltibia 38.292
lfoot -19.1661 15.8713
ltoes 7.54518
64
root -8.43224 1.65577 1.06353 150.511 85.1478 48.9095
lowerback -17.4257 1.16703 1.76362
upperback -2.87228 1.40434 -0.381449
thorax 6.72923 0.799714 -1.07917
lowerneck -8.39688 22.0902 16.0403
upperneck 25.8616 32.2833 -14.5062
head 15.653 13.929 -1.87207
rclavicle 1.35174e-014 -5.07149e-014
rhumerus 15.9973 -35.4404 -13.1558
rradius 129.048
rwrist -26.416
rhand -13.6961 -33.9363
rfingers 7.12502
rthumb 12.4221 -63.5471
lclavicle 1.35174e-014 -5.07149e-014
lhumerus 29.7693 27.6267 33.9164
lradius 123.085
lwrist 15.9134
lhand -18.602 -19.5818
lfingers 7.12502
lthumb 7.68931 10.2584
rfemur -17.5687 -19.1504 19.5634
rtibia 26.3534
rfoot -21.2935 -25.7333
rtoes 6.48515
lfemur -22.9677 11.0829 -17.3328
ltibia 38.2322
lfoot -18.8787 15.8629
ltoes 8.35462
65
root -8.43314 1.65644 1.06178 150.083 85.0842 48.4571
lowerback -17.4438 1.13456 1.67184
upperback -2.86544 1.37647 -0.367906
thorax 6.74311 0.783752 -1.01867
lowerneck -8.4324 22.0787 15.9587
upperneck 25.8855 32.2516 -14.4212
head 15.6268 13.9145 -1.84133
rclavicle -1.98785e-014 -3.61291e-014
rhumerus 16.0648 -35.4455 -13.135
rradius 129.012
rwrist -26.3849
rhand -13.7681 -33.9714
rfingers 7.12502
rthumb 12.3527 -63.5865
lclavicle -1.98785e-014 -3.61291e-014
lhumerus 29.8127 27.6731 33.9802
lradius 123.038
lwrist 15.8417
lhand -18.5674 -19.5057
lfingers 7.12502
lthumb 7.72275 10.3333
rfemur -17.6216 -19.1729 19.4797
rtibia 26.4107
rfoot -21.3766 -25.6566
rtoes 6.84878
lfemur -22.9708 10.9825 -17.4161
ltibia 38.1585
lfoot -18.6575 15.8983
ltoes 8.53823
66
root -8.43068 1.65569 1.06154 149.199 85.061 47.4947
lowerback -17.52 1.12018 1.60432
upperback -2.87304 1.37106 -0.38928
thorax 6.7752 0.780249 -1.00318
lowerneck -8.43221 22.0813 16.0389
upperneck 25.9375 32.2777 -14.4816
head 15.6885 13.9199 -1.86051
rclavicle 4.77083e-014 4.79568e-015
rhumerus 16.1271 -35.4738 -13.1675
rradius 128.993
rwrist -26.3762
rhand -13.8365 -34.1301
rfingers 7.12502
rthumb 12.2867 -63.7491
lclavicle 4.77083e-014 4.79568e-015
lhumerus 29.768 27.7136 33.9418
lradius 123.048
lwrist 15.8316
lhand -18.5659 -19.5634
lfingers 7.12502
lthumb 7.72418 10.2755
rfemur -17.7548 -19.2567 19.4123
rtibia 26.4629
rfoot -21.2149 -25.6201
rtoes 6.98485
lfemur -23.0052 10.9528 -17.5042
ltibia 38.1025
lfoot -18.8186 15.9016
ltoes 7.46678
67
root -8.42743 1.65473 1.06322 149.653 85.1315 47.895
lowerback -17.5362 1.13156 1.67021
upperback -2.91458 1.37422 -0.368223
thorax 6.74033 0.783565 -1.01746
lowerneck -8.36991 22.0668 16.1455
upperneck 26.0235 32.2896 -14.537
head 15.7553 13.9242 -1.89147
rclavicle 5.08889e-014 5.37961e-014
rhumerus 16.1613 -35.4406 -13.2147
rradius 128.985
rwrist -26.3978
rhand -13.913 -34.3391
rfingers 7.12502
rthumb 12.213 -63.9626
lclavicle 5.08889e-014 5.37961e-014
lhumerus 29.6485 27.6633 33.9057
lradius 123.097
lwrist 15.837
lhand -18.5581 -19.6791
lfingers 7.12502
lthumb 7.73173 10.1595
rfemur -17.8628 -19.3451 19.524
rtibia 26.5006
rfoot -21.0506 -25.5505
rtoes 6.94299
lfemur -23.0393 10.9925 -17.4196
ltibia 38.0798
lfoot -19.0457 15.9059
ltoes 6.63162
68
root -8.42909 1.65456 1.06272 150.905 85.1635 49.1229
lowerback -17.5829 1.12452 1.7653
upperback -2.90455 1.3427 -0.325813
thorax 6.7764 0.770004 -1.03255
lowerneck -8.31037 22.0633 16.1411
upperneck 25.9412 32.2865 -14.5899
head 15.7165 13.9277 -1.91822
rclavicle 8.11041e-014 7.13885e-014
rhumerus 16.2381 -35.4955 -13.263
rradius 128.98
rwrist -26.4895
rhand -13.9806 -34.3254
rfingers 7.12502
rthumb 12.1478 -63.9527
lclavicle 8.11041e-014 7.13885e-014
lhumerus 29.625 27.6577 33.9546
lradius 123.126
lwrist 15.7825
lhand -18.5209 -19.7
lfingers 7.12502
lthumb 7.76754 10.1373
rfemur -17.8828 -19.361 19.6487
rtibia 26.5137
rfoot -21.101 -25.4299
rtoes 6.81057
lfemur -23.0812 10.9355 -17.3095
ltibia 38.0834
lfoot -19.0964 15.9131
ltoes 7.76664
69
root -8.43218 1.65428 1.06129 151.083 85.1067 49.3071
lowerback -17.5953 1.09031 1.8019
upperback -2.87084 1.28934 -0.349948
thorax 6.81898 0.744409 -1.09109
lowerneck -8.31008 22.1069 16.1643
upperneck 25.8539 32.3584 -14.6944
head 15.7207 13.9538 -1.93565
rclavicle -8.82604e-014 -1.59102e-013
rhumerus 16.3371 -35.5909 -13.3378
rradius 128.976
rwrist -26.5156
rhand -14.0309 -34.1968
rfingers 7.12502
rthumb 12.0994 -63.827
lclavicle -8.82604e-014 -1.59102e-013
lhumerus 29.6668 27.7785 33.8911
lradius 123.099
lwrist 15.8397
lhand -18.4566 -19.6211
lfingers 7.12502
lthumb 7.82968 10.2139
rfemur -17.826 -19.2822 19.6067
rtibia 26.4846
rfoot -21.1189 -25.4705
rtoes 6.94645
lfemur -23.1091 10.8871 -17.3464
ltibia 38.1187
lfoot -18.9139 15.8875
ltoes 9.39814
70
root -8.43354 1.6539 1.06065 150.346 85.0586 48.5836
lowerback -17.5443 1.06913 1.74598
upperback -2.87838 1.27386 -0.372746
thorax 6.78205 0.735276 -1.0882
lowerneck -8.35897 22.1261 16.2004
upperneck 25.9995 32.4134 -14.6877
head 15.8162 13.964 -1.91301
rclavicle -5.1684e-014 -1.14525e-013
rhumerus 16.3755 -35.5928 -13.3642
rradius 128.991
rwrist -26.4964
rhand -14.0873 -34.2273
rfingers 7.12502
rthumb 12.045 -63.8606
lclavicle -5.1684e-014 -1.14525e-013
lhumerus 29.5959 27.8322 33.8109
lradius 123.108
lwrist 15.906
lhand -18.4625 -19.6028
lfingers 7.12502
lthumb 7.82396 10.2324
rfemur -17.7634 -19.2566 19.5086
rtibia 26.4157
rfoot -21.0052 -25.5495
rtoes 6.69613
lfemur -23.1238 10.8959 -17.4411
ltibia 38.1815
lfoot -18.9759 15.9144
ltoes 9.2994
71
root -8.43417 1.65445 1.05931 150.241 85.0636 48.4422
lowerback -17.5937 1.07075 1.69721
upperback -2.87772 1.28234 -0.336215
thorax 6.80805 0.73841 -1.01868
lowerneck -8.46734 22.1058 16.1223
upperneck 26.2392 32.3788 -14.4888
head 15.8778 13.9381 -1.83345
rclavicle 7.4743e-014 8.95773e-014
rhumerus 16.3781 -35.585 -13.3588
rradius 129.034
rwrist -26.5333
rhand -14.1757 -34.3689
rfingers 7.12502
rthumb 11.9597 -64.0072
lclavicle 7.4743e-014 8.95773e-014
lhumerus 29.5068 27.8331 33.8583
lradius 123.154
lwrist 15.8649
lhand -18.5422 -19.6731
lfingers 7.12502
lthumb 7.74705 10.165
rfemur -17.7686 -19.2973 19.5041
rtibia 26.362
rfoot -21.0764 -25.4304
rtoes 6.56496
lfemur -23.1833 10.8874 -17.458
ltibia 38.2369
lfoot -19.3951 16.0153
ltoes 7.69138
72
root -8.434 1.65375 1.06025 151.956 85.187 50.0992
lowerback -17.7046 1.09696 1.86126
upperback -2.8727 1.28029 -0.272039
thorax 6.87532 0.741454 -1.04182
lowerneck -8.5734 22.0881 15.9883
upperneck 26.3431 32.3121 -14.265
head 15.8497 13.9083 -1.75161
rclavicle 5.56597e-015 -9.36773e-015
rhumerus 16.4088 -35.567 -13.4301
rradius 129.066
rwrist -26.5045
rhand -14.2705 -34.4834
rfingers 7.12502
rthumb 11.8682 -64.127
lclavicle 5.56597e-015 -9.36773e-015
lhumerus 29.4879 27.8632 33.8534
lradius 123.161
lwrist 15.8331
lhand -18.5568 -19.6166
lfingers 7.12502
lthumb 7.73298 10.222
rfemur -17.8067 -19.1991 19.7126
rtibia 26.3534
rfoot -21.3824 -25.3006
rtoes 7.03468
lfemur -23.2768 10.9904 -17.2782
ltibia 38.2663
lfoot -19.9215 16.2919
ltoes 3.57141
73
root -8.43253 1.65334 1.06114 152.564 85.1791 50.6593
lowerback -17.7202 1.08027 1.91409
upperback -2.90405 1.24922 -0.27543
thorax 6.85006 0.727602 -1.08278
lowerneck -8.66396 22.0785 15.8284
upperneck 26.3339 32.2526 -14.0885
head 15.7733 13.8852 -1.68496
rclavicle -2.78299e-014 -6.58474e-014
rhumerus 16.4596 -35.5229 -13.4878
rradius 129.055
rwrist -26.4134
rhand -14.3233 -34.5989
rfingers 7.12502
rthumb 11.8174 -64.2454
lclavicle -2.78299e-014 -6.58474e-014
lhumerus 29.4172 27.8127 33.7971
lradius 123.213
lwrist 15.8061
lhand -18.5652 -19.5148
lfingers 7.12502
lthumb 7.7248 10.3241
rfemur -17.8775 -19.2109 19.7711
rtibia 26.369
rfoot -21.3555 -25.3574
rtoes 7.34743
lfemur -23.3618 11.0263 -17.2693
ltibia 38.2832
lfoot -19.0749 16.1239
ltoes 5.98734
74
root -8.43014 1.65316 1.06172 150.368 85.081 48.4273
lowerback -17.7035 1.04739 1.71898
upperback -2.91971 1.24763 -0.336757
thorax 6.82174 0.722745 -1.03834
lowerneck -8.70821 22.0798 15.7192
upperneck 26.2874 32.2394 -14.0383
head 15.7222 13.8778 -1.65831
rclavicle 3.73715e-014 7.21588e-014
rhumerus 16.491 -35.5252 -13.4459
rradius 129.013
rwrist -26.4587
rhand -14.3619 -34.6796
rfingers 7.12502
rthumb 11.7802 -64.3283
lclavicle 3.73715e-014 7.21588e-014
lhumerus 29.3024 27.7581 33.757
lradius 123.302
lwrist 15.7512
lhand -18.6384 -19.5134
lfingers 7.12502
lthumb 7.65423 10.3281
rfemur -17.9842 -19.4027 19.5813
rtibia 26.3931
rfoot -20.8617 -25.4584
rtoes 6.73617
lfemur -23.3781 11.0255 -17.5069
ltibia 38.2869
lfoot -18.808 16.0092
ltoes 7.25685
